<svg width="200" height="200" viewBox="0 0 200 200" fill="none" xmlns="http://www.w3.org/2000/svg">
<path d="M85.2245 86.5834C80.5715 86.5834 76.898 90.75 76.898 95.8336C76.898 100.916 80.6531 105.084 85.2245 105.084C89.8773 105.084 93.5511 100.916 93.5511 95.8336C93.6329 90.75 89.8773 86.5834 85.2245 86.5834ZM115.02 86.5834C110.367 86.5834 106.694 90.75 106.694 95.8336C106.694 100.916 110.449 105.084 115.02 105.084C119.674 105.084 123.347 100.916 123.347 95.8336C123.347 90.75 119.674 86.5834 115.02 86.5834Z" fill="white"/>
<path d="M154.694 16.6666H45.3061C36.0816 16.6666 28.5715 24.3334 28.5715 33.8334V146.5C28.5715 156 36.0816 163.666 45.3061 163.666H137.877L133.551 148.25L144 158.166L153.877 167.5L171.428 183.334V33.8334C171.428 24.3334 163.918 16.6666 154.694 16.6666ZM123.184 125.5C123.184 125.5 120.245 121.916 117.796 118.75C128.49 115.666 132.572 108.834 132.572 108.834C129.225 111.084 126.041 112.666 123.184 113.75C119.102 115.5 115.184 116.666 111.347 117.334C103.51 118.834 96.3262 118.416 90.2044 117.25C85.551 116.334 81.551 115 78.2041 113.666C76.3266 112.916 74.2857 112 72.2449 110.834C72 110.666 71.7551 110.584 71.5102 110.416C71.3469 110.334 71.2653 110.25 71.1836 110.166C69.7143 109.334 68.898 108.75 68.898 108.75C68.898 108.75 72.8163 115.416 83.1836 118.584C80.7347 121.75 77.7143 125.5 77.7143 125.5C59.6735 124.916 52.8164 112.834 52.8164 112.834C52.8164 86 64.5715 64.25 64.5715 64.25C76.3266 55.25 87.5102 55.5 87.5102 55.5L88.3265 56.5C73.6326 60.8334 66.8572 67.4166 66.8572 67.4166C66.8572 67.4166 68.6531 66.4166 71.6735 65C80.4082 61.0834 87.3469 60 90.2044 59.75C90.6942 59.6666 91.1022 59.5834 91.592 59.5834C96.5715 58.9166 102.204 58.75 108.082 59.4166C115.836 60.3334 124.164 62.6666 132.653 67.4166C132.653 67.4166 126.204 61.1666 112.326 56.8334L113.469 55.5C113.469 55.5 124.653 55.25 136.408 64.25C136.408 64.25 148.164 86 148.164 112.834C148.164 112.834 141.225 124.916 123.184 125.5Z" fill="white"/>
</svg>
